<mxfile
  host="Electron" 
  agent="Mozilla/5.0 (Macintosh; Intel Mac OS X 10_15_7) AppleWebKit/537.36 (KHTML, like Gecko) draw.io/25.0.2 Chrome/128.0.6613.186 Electron/32.2.5 Safari/537.36" 
  version="25.0.2"
  >
  <diagram
    name="-"
    >
    <mxGraphModel
      grid="1" 
      gridSize="10" 
      guides="1" 
      tooltips="1" 
      connect="1" 
      arrows="1" 
      fold="1" 
      page="1" 
      pageScale="1" 
      pageWidth="1" 
      pageHeight="1" 
      math="0" 
      shadow="0"
      >
      <root>
        <mxCell
          id="page"
          />
        <mxCell
          id="root" 
          parent="page"
          />
        <mxCell
          style="verticalAlign=top;aspect=fixed;align=center;spacingLeft=5;spacingRight=5;spacingBottom=5;strokeColor=none;" 
          id="shape_" 
          parent="root" 
          value=" " 
          vertex="1"
          >
          <mxGeometry
            as="geometry" 
            width="48" 
            height="45" 
            x="0" 
            y="0"
            />
          </mxCell>
        <mxCell
          style="shape=image;editableCssRules=.*;verticalLabelPosition=bottom;labelBackgroundColor=default;verticalAlign=top;aspect=fixed;imageAspect=0;image=data:image/svg+xml,PHN2ZyB4bWxucz0iaHR0cDovL3d3dy53My5vcmcvMjAwMC9zdmciIHZpZXdCb3g9Ii0wLjUgLTAuNSAyOCAyNC41NTMiIGhlaWdodD0iMjQuNTUzIiB3aWR0aD0iMjgiPiYjeGE7CSAgPHN0eWxlIHR5cGU9InRleHQvY3NzIj4uc3QwIHsgc3RvcC1jb2xvcjogcmdiKDkxLCAxMTUsIDEzOSk7IH0gLnN0MSB7IHN0b3AtY29sb3I6IHJnYigzNCwgNTMsIDcyKTsgfSA8L3N0eWxlPiYjeGE7CTxkZWZzPiYjeGE7CQk8bGluZWFyR3JhZGllbnQgZ3JhZGllbnRVbml0cz0idXNlclNwYWNlT25Vc2UiIHkyPSIyNC41NzgiIHgyPSIyMC42MSIgeTE9IjIuOTg1IiB4MT0iMi4wMzkiIGlkPSJBIj4mI3hhOwkJCTxzdG9wIGNsYXNzPSJzdDAiLz4mI3hhOwkJCTxzdG9wIGNsYXNzPSJzdDEiIG9mZnNldD0iMSIvPiYjeGE7CQk8L2xpbmVhckdyYWRpZW50PiYjeGE7CTwvZGVmcz4mI3hhOwk8cGF0aCBmaWxsPSJ1cmwoI0EpIiBkPSJNMjMuMjg5LS41YzEuMjAyIDAgMi4yMDUuNDAyIDMuMDA4IDEuMjA0UzI3LjUgMi41MDYgMjcuNSAzLjcxdjE2LjEzM2E0LjIgNC4yIDAgMCAxLTEuMjA0IDMuMDA4Yy0uODAyLjgwMS0xLjgwMiAxLjIwMi0zLjAwNiAxLjIwMkgzLjcxMWMtMS4yMDIgMC0yLjIwNS0uNDAxLTMuMDA4LTEuMjAyYTQuMiA0LjIgMCAwIDEtMS4yMDItMy4wMDhWMy43MWMwLTEuMjAyLjQwMi0yLjIwNSAxLjIwNC0zLjAwOFMyLjUwNy0uNSAzLjcwOS0uNXpNMi4yOSA1LjA3OWgyMi40MlYzLjcxYzAtLjk0Ny0uNDczLTEuNDIxLTEuNDIxLTEuNDIxSDMuNzExYy0uMzgyLS4wMDctLjc1My4xMy0xLjAzOS4zODMtLjI1NC4yNTQtLjM4MS42LS4zODEgMS4wMzh2MS4zNjd6bTIyLjQyIDIuODQ0SDIuMjl2MTEuOTIxYzAgLjQwMi4xMjguNzMuMzgxLjk4NS4yODcuMjUzLjY1Ny4zODkgMS4wMzkuMzgxaDE5LjU3OGMuOTQ3IDAgMS40MjEtLjQ1NSAxLjQyMS0xLjM2N1Y3LjkyMXoiLz4mI3hhOzwvc3ZnPg;strokeColor=none;" 
          id="app_non_sap_" 
          parent="shape_" 
          value=" " 
          vertex="1"
          >
          <mxGeometry
            width="28" 
            height="25" 
            as="geometry" 
            x="10" 
            y="10"
            />
          </mxCell>
        </root>
      </mxGraphModel>
    </diagram>
  </mxfile>